# xmcd CD database file generated by LOLA_Freedb v0.9beta0
# 
# Track frame offsets:
#      150
#      23228
#      46967
#      62294
#      78077
#      96797
#      115361
#      128404
#      148037
# 
# Disc length: 2268 seconds
# 
# Revision: 0 
# Processed by: cddbd v1.5.2PL0 Copyright (c) Steve Scherf et al.
# Submitted via: LOLA_Freedb v0.9beta0
# 
DISCID=6908da09
DTITLE=Jermaine Jackson - My Name Is Jermaine
DYEAR=1976
DGENRE=
TTITLE0=Let's Be Young Tonight
TTITLE1=Faithful
TTITLE2=Look Past My Life
TTITLE3=Bass Odyssey
TTITLE4=Who's That Lady
TTITLE5=Lovely, You're The One
TTITLE6=Stay With Me
TTITLE7=I Just Want To Take This Time
TTITLE8=My Touch Of Madness
EXTD=
EXTT0=
EXTT1=
EXTT2=
EXTT3=
EXTT4=
EXTT5=
EXTT6=
EXTT7=
EXTT8=
PLAYORDER=
